<?xml version="1.0" encoding="UTF-8"?>
<svg id="Capa_2" data-name="Capa 2" xmlns="http://www.w3.org/2000/svg" viewBox="0 0 1644.66 431.15">
  <defs>
    <style>
      .cls-1 {
        fill-rule: evenodd;
      }

      .cls-1, .cls-2 {
        fill: #219cff;
      }
    </style>
  </defs>
  <g id="Capa_1-2" data-name="Capa 1">
    <g>
      <path class="cls-2" d="M340.33,128.6l-32.59,32.23c-4.24,4.19-11.05,4.3-15.38.2-28.78-27.23-61.82-40.85-99.13-40.85s-65.04,11.73-88.94,35.2c-23.9,23.47-35.84,51.99-35.84,85.56s12.4,64.13,37.2,88.25c24.8,24.12,55.39,36.18,91.77,36.18,23.65,0,43.6-4.97,59.83-14.91,16.23-9.94,29.32-25.5,39.28-46.69h-93.04c-6.13,0-11.1-4.97-11.1-11.1v-42.1c0-6.13,4.97-11.1,11.1-11.1h159.06c5.99,0,10.9,4.75,11.09,10.74l.14,4.42c0,31.45-8.15,61.28-24.44,89.47-16.3,28.2-37.4,49.71-63.31,64.54-25.91,14.83-56.31,22.24-91.18,22.24-37.32,0-70.61-8.11-99.86-24.32-29.25-16.21-52.4-39.32-69.43-69.3C8.51,307.27,0,274.92,0,240.21c0-47.59,15.73-88.98,47.18-124.18,37.32-41.88,85.88-62.82,145.7-62.82,31.29,0,60.54,5.79,87.76,17.36,20.28,8.63,40.17,22.71,59.69,42.25,4.37,4.37,4.4,11.45,0,15.79Z"/>
      <path class="cls-2" d="M968.07,129.93v19.23c-25.89-19.06-57.87-30.33-92.48-30.33-.17,0-.34,0-.51,0-.18,0-.36,0-.54,0-7.78,0-15.33.6-22.64,1.79-.4.06-.8.13-1.2.2-.26.05-.53.08-.79.13-74.02,12.25-130.48,76.55-130.48,154.05,0,86.25,69.92,156.16,156.16,156.16.19,0,.37,0,.55,0,.19,0,.38,0,.58,0,.49,0,.97-.03,1.45-.03.79-.01,1.58-.03,2.36-.05,3.39-.09,6.73-.29,10.01-.63,28.85-2.74,55.41-13.33,77.52-29.61v18.93c0,6.13,4.97,11.1,11.1,11.1h52.34c6.13,0,11.1-4.97,11.1-11.1V129.93c0-6.13-4.97-11.1-11.1-11.1h-52.34c-6.13,0-11.1,4.97-11.1,11.1ZM875.59,370.16c-52.56,0-95.17-42.61-95.17-95.17s42.61-95.17,95.17-95.17,95.17,42.61,95.17,95.17-42.61,95.17-95.17,95.17Z"/>
      <path class="cls-2" d="M636.34,129.93v143.5c0,52.19-41.36,95.85-93.54,96.72-53.3.89-96.79-42.05-96.79-95.15v-145.06c0-6.13-4.97-11.1-11.1-11.1h-38.8c-6.13,0-11.1,4.97-11.1,11.1v150.61h.11c2.92,83.68,71.66,150.62,156.05,150.62.19,0,.37,0,.55,0,.19,0,.38,0,.58,0,.49,0,.97-.03,1.45-.03.79-.01,1.58-.03,2.36-.05,3.39-.09,6.73-.29,10.01-.63,28.85-2.74,55.41-13.33,77.52-29.61v18.93c0,6.13,4.97,11.1,11.1,11.1h52.34c6.13,0,11.1-4.97,11.1-11.1V129.93c0-6.13-4.97-11.1-11.1-11.1h-49.66c-6.13,0-11.1,4.97-11.1,11.1Z"/>
      <g>
        <g>
          <path class="cls-2" d="M1644.66,248v-27.33h0v-11.95c0-1.65-.34-3.23-.94-4.66-1.82-4.29-6.07-7.31-11.03-7.31h-43.03v51.25h54.99Z"/>
          <rect class="cls-2" x="1589.67" y="270.39" width="54.99" height="160.46"/>
        </g>
        <path class="cls-2" d="M1262.54,280.93h63.09c3.21,0,5.81-2.6,5.81-5.81v-11.77c0-.17,0-7.01.02-7.18,1.44-19.79,9.31-32.04,23-46.54.66-.7,1.32-1.38,2-2.06l.09.09c17.19-17.19,40.93-27.83,67.15-27.85,50.37.05,91.55,39.26,94.77,88.83h.23v101.71c0,3.21-2.6,5.81-5.81,5.81h-20.66c-3.21,0-5.81,2.6-5.81,5.81v43.36c0,3.21,2.6,5.81,5.81,5.81h82.13c3.21,0,5.81-2.6,5.81-5.81v-49.18h-.35v-98.62h-.03c.02-.88.03-1.76.03-2.64,0-79.72-59.78-145.47-136.96-154.88-1.02-.13-2.05-.24-3.08-.35-.03,0-.07,0-.1,0-3.71-.39-7.48-.63-11.31-.73-.69-.02-1.39-.03-2.08-.04-.54,0-1.08-.03-1.63-.03-.15,0-.3,0-.45,0-.14,0-.28,0-.42,0-.03,0-.06,0-.09,0-.03,0-.06,0-.09,0-.09,0-.19,0-.28,0-.03,0-.06,0-.1,0-.19,0-.38,0-.58,0-.49,0-.96.03-1.45.03-.74.01-1.45.11-2.23-.06-1.14-.24-2.28-.06-3.41.22-.27.07-.57.05-.85.07-.62.03-1.24.07-1.85.12-.12,0-.23.02-.35.03-26.52,1.87-51.22,10.35-72.44,23.82-3.85,2.44-8.88-.39-8.88-4.95V5.81C1331.2,2.6,1328.59,0,1325.38,0h-62.84c-3.21,0-5.81,2.6-5.81,5.81v100.47-.43.43h0v168.83c0,3.21,2.6,5.81,5.81,5.81Z"/>
        <g id="Icon">
          <path class="cls-1" d="M1413.22,408.52h40.74c4.73,0,9.26-1.87,12.6-5.23,3.35-3.34,5.23-7.87,5.23-12.6v-40.74c0-4.22-3.42-7.64-7.64-7.64-4.22,0-7.64,3.42-7.64,7.64v40.74c0,.67-.26,1.32-.74,1.8s-1.13.74-1.8.74h-40.74c-4.22,0-7.64,3.42-7.64,7.64,0,4.22,3.42,7.64,7.64,7.64Z"/>
          <path class="cls-1" d="M1471.79,267.69v-40.74c0-4.73-1.87-9.26-5.23-12.6-3.34-3.35-7.87-5.23-12.6-5.23h-40.74c-4.22,0-7.64,3.42-7.64,7.64,0,4.22,3.42,7.64,7.64,7.64h40.74c.67,0,1.32.26,1.8.74s.74,1.13.74,1.8v40.74c0,4.22,3.42,7.64,7.64,7.64s7.64-3.42,7.64-7.64Z"/>
          <path class="cls-1" d="M1379.73,364.84c0,4.73,1.87,9.26,5.23,12.6,3.34,3.35,7.87,5.23,12.6,5.23,8.87,0,21.68,0,30.56,0,4.73,0,9.26-1.87,12.6-5.23,3.35-3.34,5.23-7.87,5.23-12.6v-30.56c0-4.73-1.87-9.26-5.23-12.6-3.34-3.35-7.87-5.23-12.6-5.23h-30.56c-4.73,0-9.26,1.87-12.6,5.23-3.35,3.34-5.23,7.87-5.23,12.6v30.56ZM1395.01,364.84v-30.56c0-.67.26-1.32.74-1.8s1.13-.74,1.8-.74h30.56c.67,0,1.32.26,1.8.74.48.48.74,1.13.74,1.8v30.56c0,.67-.26,1.32-.74,1.8s-1.13.74-1.8.74h-30.56c-.67,0-1.32-.26-1.8-.74s-.74-1.13-.74-1.8Z"/>
          <path class="cls-1" d="M1379.73,283.36c0,4.73,1.87,9.26,5.23,12.6,3.34,3.35,7.87,5.23,12.6,5.23,8.87,0,21.68,0,30.56,0,4.73,0,9.26-1.87,12.6-5.23,3.35-3.34,5.23-7.87,5.23-12.6v-30.56c0-4.73-1.87-9.26-5.23-12.6-3.34-3.35-7.87-5.23-12.6-5.23h-30.56c-4.73,0-9.26,1.87-12.6,5.23-3.35,3.34-5.23,7.87-5.23,12.6v30.56ZM1395.01,283.36v-30.56c0-.67.26-1.32.74-1.8s1.13-.74,1.8-.74h30.56c.67,0,1.32.26,1.8.74s.74,1.13.74,1.8v30.56c0,.67-.26,1.32-.74,1.8s-1.13.74-1.8.74h-30.56c-.67,0-1.32-.26-1.8-.74s-.74-1.13-.74-1.8Z"/>
          <path class="cls-1" d="M1281.15,377.34c0,5.95,2.36,11.65,6.57,15.85,4.2,4.22,9.91,6.57,15.85,6.57,11.16,0,27.29,0,38.45,0,5.95,0,11.65-2.36,15.85-6.57,4.22-4.2,6.57-9.91,6.57-15.85v-38.45c0-5.95-2.36-11.65-6.57-15.85-4.2-4.22-9.91-6.57-15.85-6.57h-38.45c-5.95,0-11.65,2.36-15.85,6.57-4.22,4.2-6.57,9.91-6.57,15.85v38.45ZM1300.37,377.34v-38.45c0-.85.33-1.67.94-2.27s1.42-.94,2.27-.94h38.45c.85,0,1.67.33,2.27.94s.94,1.42.94,2.27v38.45c0,.85-.33,1.67-.94,2.27-.6.6-1.42.94-2.27.94h-38.45c-.85,0-1.67-.33-2.27-.94-.6-.6-.94-1.42-.94-2.27Z"/>
        </g>
        <path class="cls-2" d="M1254.43,363.94c-10.54,4.03-21.98,6.26-33.94,6.26-52.52,0-95.09-42.57-95.09-95.09s42.57-95.09,95.09-95.09c.53,0,1.06.03,1.59.04v-60.96c-.53-.01-1.06-.03-1.59-.03-.17,0-.34,0-.51,0-.18,0-.36,0-.54,0-.66,0-1.3.03-1.95.04-.47,0-.94.01-1.4.03-6.57.15-12.98.71-19.22,1.71-.41.06-.82.13-1.23.2,0,0-.01,0-.02,0-.26.05-.53.08-.79.13,0,0,0,0,0,0-11.56,1.91-22.68,5.09-33.24,9.4,0,0,0,0,0,0-8.43,3.44-16.49,7.59-24.11,12.39-.02.01-.03.02-.05.03-.9.57-1.79,1.14-2.68,1.73-.08.06-.17.11-.25.17-.85.56-1.7,1.14-2.54,1.72-.11.07-.21.15-.32.22-.84.58-1.67,1.17-2.49,1.76-.09.06-.17.13-.26.19-.85.62-1.7,1.25-2.54,1.88,0,0,0,0,0,0-4.4,3.34-8.62,6.9-12.64,10.68-.08.08-.17.16-.25.24-.68.64-1.35,1.29-2.02,1.95-.17.17-.34.33-.51.5-.63.62-1.24,1.24-1.86,1.87-.21.21-.41.42-.62.63-.59.61-1.17,1.22-1.75,1.84-.22.23-.44.47-.66.7-.57.62-1.14,1.23-1.7,1.86-.21.23-.42.47-.63.71-.56.64-1.13,1.27-1.68,1.92-.18.21-.36.42-.53.63-.58.68-1.16,1.37-1.73,2.06-.06.07-.11.14-.17.21-1.93,2.36-3.79,4.78-5.58,7.25-.16.22-.32.44-.48.66-.45.63-.89,1.27-1.33,1.9-.24.34-.48.68-.71,1.02-.41.6-.81,1.2-1.2,1.8-.26.39-.52.78-.77,1.18-.38.58-.75,1.17-1.12,1.76-.26.42-.52.84-.78,1.26-.36.58-.71,1.16-1.06,1.75-.26.44-.52.88-.78,1.33-.34.58-.67,1.15-1,1.73-.26.46-.52.93-.78,1.39-.32.57-.64,1.15-.95,1.72-.26.48-.51.96-.76,1.45-.3.57-.6,1.14-.9,1.72-.26.51-.51,1.03-.77,1.54-.45.91-.9,1.83-1.33,2.75-.32.67-.64,1.34-.94,2.02-.24.52-.46,1.05-.69,1.57-.26.58-.51,1.16-.76,1.74-.23.53-.44,1.07-.66,1.6-.24.58-.48,1.17-.72,1.76-.21.54-.42,1.08-.63,1.62-.23.59-.45,1.18-.67,1.77-.2.54-.4,1.08-.59,1.63-.22.6-.43,1.21-.64,1.82-.19.54-.37,1.08-.55,1.62-.21.62-.41,1.25-.61,1.87-.17.53-.34,1.06-.5,1.6-.2.65-.39,1.31-.58,1.96-.15.51-.3,1.03-.45,1.54-.2.71-.39,1.43-.58,2.15-.12.46-.25.93-.37,1.39-.25.97-.48,1.94-.71,2.91-.05.22-.11.44-.16.66-.27,1.19-.53,2.38-.78,3.58-.08.41-.16.82-.24,1.23-.16.8-.32,1.6-.46,2.41-.09.49-.17.98-.25,1.47-.13.74-.25,1.48-.37,2.22-.08.52-.15,1.03-.23,1.55-.11.72-.21,1.44-.3,2.16-.07.53-.14,1.06-.2,1.59-.09.72-.17,1.44-.25,2.16-.06.53-.11,1.06-.16,1.59-.07.74-.14,1.47-.2,2.21-.04.52-.09,1.05-.13,1.57-.06.77-.1,1.53-.15,2.3-.03.5-.06,1-.09,1.5-.04.85-.07,1.71-.1,2.56-.01.42-.03.83-.04,1.25-.03,1.28-.05,2.55-.05,3.84,0,86.18,69.86,156.04,156.04,156.04.19,0,.37,0,.55,0,.19,0,.38,0,.58,0,.49,0,.97-.03,1.45-.03,2.17-.04,4.34-.11,6.49-.24.62-.03,1.24-.07,1.85-.12,4.93-.34,9.79-.91,14.57-1.7.1-.02.21-.03.31-.05,5.19-.86,10.3-1.98,15.3-3.35.07-.02.15-.04.23-.06,3.35-.92,6.65-1.94,9.9-3.07.04-.02.09-.03.13-.05,1.14-.4,2.28-.83,3.41-1.25l-20.84-57.29Z"/>
        <polygon class="cls-2" points="1236.08 66.57 1187.27 102.26 1077.17 102.26 1077.17 43.49 1172.61 43.49 1236.08 0 1236.08 66.57"/>
      </g>
    </g>
  </g>
</svg>